<svg xmlns="http://www.w3.org/2000/svg" xmlns:oryx="http://oryx-editor.org" id="_8B458540-CAD1-4564-9187-B6BAF73DF166" width="579" height="261" xmlns:xlink="http://www.w3.org/1999/xlink" xmlns:svg="http://www.w3.org/2000/svg"><defs><marker id="_83657FBA-FEBF-43EF-B536-E0EEB00718ADstart" refX="1" refY="5" markerUnits="userSpaceOnUse" markerWidth="17" markerHeight="11" orient="auto" fill="#000000" stroke="#000000"> 	  		<path id="_83657FBA-FEBF-43EF-B536-E0EEB00718ADconditional" d="M 0 5 L 8 0 L 16 5 L 8 10 L 0 5" fill="white" stroke="#000000" stroke-width="1" display="none"/> 			<path id="_83657FBA-FEBF-43EF-B536-E0EEB00718ADdefault" d="M 5 0 L 11 10" fill="white" stroke="#000000" stroke-width="1" display="none"/> 	  	</marker><marker id="_83657FBA-FEBF-43EF-B536-E0EEB00718ADend" refX="15" refY="6" markerUnits="userSpaceOnUse" markerWidth="15" markerHeight="12" orient="auto" fill="#000000" stroke="#000000"> 	  		<path id="_83657FBA-FEBF-43EF-B536-E0EEB00718ADframe2" d="M 0 1 L 15 6 L 0 11z" fill="#000000" stroke="#000000" stroke-linejoin="round" stroke-width="2"/> 	  	</marker><marker id="_55B4FA0F-A2E4-4F4D-A42B-FABE29006CCDstart" refX="1" refY="5" markerUnits="userSpaceOnUse" markerWidth="17" markerHeight="11" orient="auto" fill="#000000" stroke="#000000"> 	  		<path id="_55B4FA0F-A2E4-4F4D-A42B-FABE29006CCDconditional" d="M 0 5 L 8 0 L 16 5 L 8 10 L 0 5" fill="white" stroke="#000000" stroke-width="1" display="none"/> 			<path id="_55B4FA0F-A2E4-4F4D-A42B-FABE29006CCDdefault" d="M 5 0 L 11 10" fill="white" stroke="#000000" stroke-width="1" display="none"/> 	  	</marker><marker id="_55B4FA0F-A2E4-4F4D-A42B-FABE29006CCDend" refX="15" refY="6" markerUnits="userSpaceOnUse" markerWidth="15" markerHeight="12" orient="auto" fill="#000000" stroke="#000000"> 	  		<path id="_55B4FA0F-A2E4-4F4D-A42B-FABE29006CCDframe2" d="M 0 1 L 15 6 L 0 11z" fill="#000000" stroke="#000000" stroke-linejoin="round" stroke-width="2"/> 	  	</marker><marker id="_ACC12C3C-745F-4926-9ED6-1251106B792Cstart" refX="1" refY="5" markerUnits="userSpaceOnUse" markerWidth="17" markerHeight="11" orient="auto" fill="#000000" stroke="#000000"> 	  		<path id="_ACC12C3C-745F-4926-9ED6-1251106B792Cconditional" d="M 0 5 L 8 0 L 16 5 L 8 10 L 0 5" fill="white" stroke="#000000" stroke-width="1" display="none"/> 			<path id="_ACC12C3C-745F-4926-9ED6-1251106B792Cdefault" d="M 5 0 L 11 10" fill="white" stroke="#000000" stroke-width="1" display="none"/> 	  	</marker><marker id="_ACC12C3C-745F-4926-9ED6-1251106B792Cend" refX="15" refY="6" markerUnits="userSpaceOnUse" markerWidth="15" markerHeight="12" orient="auto" fill="#000000" stroke="#000000"> 	  		<path id="_ACC12C3C-745F-4926-9ED6-1251106B792Cframe2" d="M 0 1 L 15 6 L 0 11z" fill="#000000" stroke="#000000" stroke-linejoin="round" stroke-width="2"/> 	  	</marker></defs><g stroke="none" font-family="Verdana, sans-serif" font-size-adjust="none" font-style="normal" font-variant="normal" font-weight="normal" line-heigth="normal" font-size="12"><g class="stencils" transform="translate(16, 16)"><g class="me"/><g class="children"><g id="_515661B1-0536-4661-969A-A246E0DA031A" bpmn2nodeid="processStartEvent"><g class="stencils" transform="translate(120, 165)"><g class="me"><g pointer-events="fill" id="_515661B1-0536-4661-969A-A246E0DA031A">        <defs id="_515661B1-0536-4661-969A-A246E0DA031A__515661B1-0536-4661-969A-A246E0DA031A_5"> 		<radialGradient id="_515661B1-0536-4661-969A-A246E0DA031Abackground" cx="10%" cy="10%" r="100%" fx="10%" fy="10%"> 			<stop offset="0%" stop-color="#ffffff" stop-opacity="1" id="_515661B1-0536-4661-969A-A246E0DA031A__515661B1-0536-4661-969A-A246E0DA031A_6"/> 			<stop id="_515661B1-0536-4661-969A-A246E0DA031Afill_el" offset="100%" stop-color="#9acd32" stop-opacity="1"/> 		</radialGradient> 	</defs> 	     <circle id="_515661B1-0536-4661-969A-A246E0DA031Abg_frame" cx="15" cy="15" r="15" stroke="#000000" fill="url(#_515661B1-0536-4661-969A-A246E0DA031Abackground) white" stroke-width="1" style="stroke-dasharray: 5.5, 3"/>      <circle id="_515661B1-0536-4661-969A-A246E0DA031Aframe" cx="15" cy="15" r="15" stroke="#000000" fill="none" stroke-width="1" display="inherit"/>  	<text font-size="11" id="_515661B1-0536-4661-969A-A246E0DA031Atext_name" x="15" y="32" oryx:align="top center" stroke="black" stroke-width="0pt" letter-spacing="-0.01px" fill="#000000" text-anchor="middle" transform="rotate(0 15 32)" visibility="inherit" oryx:fontSize="11"/>   </g></g><g class="children" style="overflow:hidden"/><g class="edge"/></g><g class="controls"><g class="dockers"/><g class="magnets" transform="translate(120, 165)"><g pointer-events="all" display="none" transform="translate(7, 7)"><circle cx="8" cy="8" r="4" stroke="none" fill="red" fill-opacity="0.3"/></g></g></g></g><g id="_65C5E795-0D2B-4BF9-94B7-4E080963A5A8" bpmn2nodeid="_6041FA8B-401E-4A51-8879-4135B0E4BE23"><g class="stencils" transform="translate(195, 140)"><g class="me"><g pointer-events="fill" oryx:minimumSize="50 40" id="_65C5E795-0D2B-4BF9-94B7-4E080963A5A8">   	<defs id="_65C5E795-0D2B-4BF9-94B7-4E080963A5A8__65C5E795-0D2B-4BF9-94B7-4E080963A5A8_17"> 		<radialGradient id="_65C5E795-0D2B-4BF9-94B7-4E080963A5A8background" cx="10%" cy="10%" r="100%" fx="10%" fy="10%"> 			<stop offset="0%" stop-color="#ffffff" stop-opacity="1" id="_65C5E795-0D2B-4BF9-94B7-4E080963A5A8__65C5E795-0D2B-4BF9-94B7-4E080963A5A8_18"/> 			<stop id="_65C5E795-0D2B-4BF9-94B7-4E080963A5A8fill_el" offset="100%" stop-color="#fafad2" stop-opacity="1"/> 		</radialGradient> 		<radialGradient id="_65C5E795-0D2B-4BF9-94B7-4E080963A5A8borderbackground" cx="10%" cy="10%" r="100%" fx="10%" fy="10%"> 			<stop offset="0%" stop-color="#ffffff" stop-opacity="1" id="_65C5E795-0D2B-4BF9-94B7-4E080963A5A8__65C5E795-0D2B-4BF9-94B7-4E080963A5A8_19"/> 			<stop id="_65C5E795-0D2B-4BF9-94B7-4E080963A5A8fill_border" offset="100%" stop-color="#000000" stop-opacity="1" stroke="#000000"/> 		</radialGradient> 	</defs> 	 	<rect id="_65C5E795-0D2B-4BF9-94B7-4E080963A5A8text_frame" oryx:anchors="bottom top right left" x="1" y="1" width="94" height="79" rx="10" ry="10" stroke="none" stroke-width="0" fill="none"/> 	<rect id="_65C5E795-0D2B-4BF9-94B7-4E080963A5A8bg_frame" oryx:resize="vertical horizontal" x="0" y="0" width="100" height="80" rx="10" ry="10" stroke="#000000" stroke-width="1" fill="url(#_65C5E795-0D2B-4BF9-94B7-4E080963A5A8background) #ffffcc"/> 		<text font-size="12" id="_65C5E795-0D2B-4BF9-94B7-4E080963A5A8text_name" x="50" y="40" oryx:align="middle center" oryx:fittoelem="text_frame" stroke="black" text-anchor="middle" stroke-width="0pt" letter-spacing="-0.01px" fill="#000000" transform="rotate(0 50 40)" visibility="inherit" oryx:fontSize="12"><tspan x="50" y="40" dy="5" id="ext-gen604">Agent</tspan></text>     <g id="_65C5E795-0D2B-4BF9-94B7-4E080963A5A8manualTask" transform="scale(0.7,0.7) translate(8,8)" display="none">     	<path oryx:anchors="top left" id="_65C5E795-0D2B-4BF9-94B7-4E080963A5A8frame" style="opacity:1;fill:none;fill-opacity:1;stroke-width:1" d="M0.5,3.751l4.083-3.25c0,0,11.166,0.083,12.083,0.083s-2.417,2.917-1.5,2.917     s11.667,0,12.584,0c1.166,1.708-0.168,3.167-0.834,3.667s0.875,1.917-1,4.417c-0.75,0.25,0.75,1.875-1.333,3.333     c-1.167,0.583,0.583,1.542-1.25,2.833c-1.167,0-20.833,0.083-20.833,0.083l-2-1.333V3.751z" stroke="#000000"/> 		<path id="_65C5E795-0D2B-4BF9-94B7-4E080963A5A8frame2" oryx:anchors="top left" style="opacity:1;fill:none;stroke-width:2" d="M 13.5 7 L 27 7" stroke="#000000"/> 		<path id="_65C5E795-0D2B-4BF9-94B7-4E080963A5A8frame3" oryx:anchors="top left" style="opacity:1;fill:none;stroke-width:2" d="M 13.5 11 L 26 11" stroke="#000000"/> 		<path id="_65C5E795-0D2B-4BF9-94B7-4E080963A5A8frame4" oryx:anchors="top left" style="opacity:1;fill:none;stroke-width:1.5" d="M 14 14.5 L 25 14.5" stroke="#000000"/> 		<path id="_65C5E795-0D2B-4BF9-94B7-4E080963A5A8frame5" oryx:anchors="top left" style="opacity:1;fill:none;stroke-width:1.5" d="M 8.2 3.1 L 15 3.1" stroke="#000000"/> 	</g> 	 	<g id="_65C5E795-0D2B-4BF9-94B7-4E080963A5A8businessRuleTask" transform="scale(0.7,0.7) translate(8,8)" display="none"> 		<rect id="_65C5E795-0D2B-4BF9-94B7-4E080963A5A8frame6" oryx:anchors="top left" x="0" y="0" width="22" height="4" style="opacity:1;fill:#B3B1B3;fill-opacity:1;" stroke="#000000"/> 		<rect id="_65C5E795-0D2B-4BF9-94B7-4E080963A5A8frame7" oryx:anchors="top left" x="0" y="4" style="opacity:1;fill:none;" width="22" height="12" stroke="#000000"/> 		<path id="_65C5E795-0D2B-4BF9-94B7-4E080963A5A8frame8" oryx:anchors="top left" style="opacity:1;fill:none;" d="M 0 10 L 22 10" stroke="#000000"/> 		<path id="_65C5E795-0D2B-4BF9-94B7-4E080963A5A8frame9" oryx:anchors="top left" style="opacity:1; fill:none;" d="M 7 4 L 7 16" stroke="#000000"/> 	</g> 	 	<g id="_65C5E795-0D2B-4BF9-94B7-4E080963A5A8scriptTask" transform="scale(0.7,0.7) translate(8,8)" display="none"> 		<path oryx:anchors="top left" id="_65C5E795-0D2B-4BF9-94B7-4E080963A5A8frame10" style="opacity:1;fill:none;" stroke="#000000" d="M6.402,0.5h14.5c0,0-5.833,2.833-5.833,5.583s4.417,6,4.417,9.167    s-4.167,5.083-4.167,5.083H0.235c0,0,5-2.667,5-5s-4.583-6.75-4.583-9.25S6.402,0.5,6.402,0.5z"/> 		<path oryx:anchors="top left" id="_65C5E795-0D2B-4BF9-94B7-4E080963A5A8frame11" style="opacity:1;fill:none;stroke-width:1.5" d="M 3.5 4.5 L 13.5 4.5" stroke="#000000"/> 		<path oryx:anchors="top left" id="_65C5E795-0D2B-4BF9-94B7-4E080963A5A8frame12" style="opacity:1;fill:none;stroke-width:1.5" d="M 3.8 8.5 L 13.8 8.5" stroke="#000000"/> 		<path oryx:anchors="top left" id="_65C5E795-0D2B-4BF9-94B7-4E080963A5A8frame13" style="opacity:1;fill:none;stroke-width:1.5" d="M 6.3 12.5 L 16.3 12.5" stroke="#000000"/> 		<path oryx:anchors="top left" id="_65C5E795-0D2B-4BF9-94B7-4E080963A5A8frame14" style="opacity:1;fill:none;stroke-width:1.5" d="M 6.5 16.5 L 16.5 16.5" stroke="#000000"/> 	</g> 	 	<g id="_65C5E795-0D2B-4BF9-94B7-4E080963A5A8userTask" transform="scale(0.7,0.7) translate(8,8)" display="inherit"> 		<path id="_65C5E795-0D2B-4BF9-94B7-4E080963A5A8frame15" oryx:anchors="top left" style="opacity:1;fill:#F4F6F7" stroke="#000000" d="M0.585,24.167h24.083v-7.833c0,0-2.333-3.917-7.083-5.167h-9.25    c-4.417,1.333-7.833,5.75-7.833,5.75L0.585,24.167z"/> 		<path id="_65C5E795-0D2B-4BF9-94B7-4E080963A5A8frame16" oryx:anchors="top left" style="opacity:1;fill:none" d="M 6 20 L 6 24" stroke="#000000"/> 		<path id="_65C5E795-0D2B-4BF9-94B7-4E080963A5A8frame17" oryx:anchors="top left" style="opacity:1;fill:none" d="M 20 20 L 20 24" stroke="#000000"/> 		<circle id="_65C5E795-0D2B-4BF9-94B7-4E080963A5A8frame18" oryx:anchors="top left" fill="black" cx="13.002" cy="5.916" r="5.417" stroke="#000000"/> 		<path id="_65C5E795-0D2B-4BF9-94B7-4E080963A5A8frame19" oryx:anchors="top left" style="opacity:1;fill:#F0EFF0;" stroke="#000000" d="M8.043,7.083c0,0,2.814-2.426,5.376-1.807s4.624-0.693,4.624-0.693    c0.25,1.688,0.042,3.75-1.458,5.584c0,0,1.083,0.75,1.083,1.5s0.125,1.875-1,3s-5.5,1.25-6.75,0S8.668,12.834,8.668,12    s0.583-1.25,1.25-1.917C8.835,9.5,7.419,7.708,8.043,7.083z"/> 	</g> 	 	<g id="_65C5E795-0D2B-4BF9-94B7-4E080963A5A8serviceTask" transform="scale(0.7,0.7) translate(8,8)" display="none"> 		<polygon oryx:anchors="top left" id="_65C5E795-0D2B-4BF9-94B7-4E080963A5A8frame20" style="opacity:1;fill:#ffffff" stroke="#000000" points="15.392,5.064 17.954,2.502 20.347,4.895 17.786,7.455     18.729,9.732 22.353,9.732 22.353,13.115 18.731,13.115 17.788,15.392 20.351,17.955 17.958,20.347 15.397,17.786 13.12,18.729     13.12,22.353 9.737,22.353 9.737,18.731 7.46,17.788 4.897,20.35 2.506,17.958 5.066,15.397 4.124,13.12 0.5,13.12 0.5,9.737     4.121,9.737 5.065,7.461 2.503,4.898 4.895,2.506 7.455,5.066 9.732,4.125 9.732,0.5 13.116,0.5 13.116,4.121 "/> 		<circle oryx:anchors="top left" id="_65C5E795-0D2B-4BF9-94B7-4E080963A5A8frame21" style="opacity:1;fill:none" stroke="#000000" cx="11.427" cy="11.426" r="3.714"/> 		<polygon oryx:anchors="top left" id="_65C5E795-0D2B-4BF9-94B7-4E080963A5A8frame22" style="opacity:1;fill:#ffffff" stroke="#000000" points="21.392,11.064 23.954,8.502 26.347,10.895 23.786,13.455     24.729,15.732 28.353,15.732 28.353,19.115 24.731,19.115 23.788,21.392 26.351,23.955 23.958,26.347 21.397,23.786 19.12,24.729     19.12,28.353 15.737,28.353 15.737,24.731 13.46,23.788 10.897,26.35 8.506,23.958 11.066,21.397 10.124,19.12 6.5,19.12     6.5,15.737 10.121,15.737 11.065,13.461 8.503,10.898 10.895,8.506 13.455,11.066 15.732,10.125 15.732,6.5 19.116,6.5     19.116,10.121 "/> 		<circle oryx:anchors="top left" id="_65C5E795-0D2B-4BF9-94B7-4E080963A5A8frame23" style="opacity:1;fill:none;" stroke="#000000" cx="17.427" cy="17.426" r="3.714"/> 	</g> 	 	<g id="_65C5E795-0D2B-4BF9-94B7-4E080963A5A8sendTask" display="none"> 		<path id="_65C5E795-0D2B-4BF9-94B7-4E080963A5A8stframe24" oryx:anchors="left top" stroke="#FFFFFF" fill="black" stroke-width="1" d="M8,11 L8,21 L24,21 L24,11 L16,17z"/> 		<path id="_65C5E795-0D2B-4BF9-94B7-4E080963A5A8stframe25" oryx:anchors="left top" stroke="#FFFFFF" fill="black" stroke-width="1" d="M7,10 L16,17 L25 10z"/> 	</g> 	 	<g id="_65C5E795-0D2B-4BF9-94B7-4E080963A5A8receiveTask" display="none"> 		<path id="_65C5E795-0D2B-4BF9-94B7-4E080963A5A8frame26" oryx:anchors="left top" stroke="#000000" fill="none" stroke-width="1" d="M8,11 L8,21 L24,21 L24,11z M8,11 L16,17 L24,11"/> 	</g> 	 	<g id="_65C5E795-0D2B-4BF9-94B7-4E080963A5A8none" display="inherit"/>  	<g id="_65C5E795-0D2B-4BF9-94B7-4E080963A5A8sequential" display="none">         <path oryx:anchors="bottom" fill="none" stroke="#000000" stroke-width="2" d="M46,76h10M46,72h10 M46,68h10" id="_65C5E795-0D2B-4BF9-94B7-4E080963A5A8__65C5E795-0D2B-4BF9-94B7-4E080963A5A8_20"/>     </g>   </g></g><g class="children" style="overflow:hidden"/><g class="edge"/></g><g class="controls"><g class="dockers"/><g class="magnets" transform="translate(195, 140)"><g pointer-events="all" display="none" transform="translate(-7, 12)"><circle cx="8" cy="8" r="4" stroke="none" fill="red" fill-opacity="0.3"/></g><g pointer-events="all" display="none" transform="translate(-7, 32)"><circle cx="8" cy="8" r="4" stroke="none" fill="red" fill-opacity="0.3"/></g><g pointer-events="all" display="none" transform="translate(-7, 52)"><circle cx="8" cy="8" r="4" stroke="none" fill="red" fill-opacity="0.3"/></g><g pointer-events="all" display="none" transform="translate(17, 71)"><circle cx="8" cy="8" r="4" stroke="none" fill="red" fill-opacity="0.3"/></g><g pointer-events="all" display="none" transform="translate(42, 71)"><circle cx="8" cy="8" r="4" stroke="none" fill="red" fill-opacity="0.3"/></g><g pointer-events="all" display="none" transform="translate(67, 71)"><circle cx="8" cy="8" r="4" stroke="none" fill="red" fill-opacity="0.3"/></g><g pointer-events="all" display="none" transform="translate(91, 12)"><circle cx="8" cy="8" r="4" stroke="none" fill="red" fill-opacity="0.3"/></g><g pointer-events="all" display="none" transform="translate(91, 32)"><circle cx="8" cy="8" r="4" stroke="none" fill="red" fill-opacity="0.3"/></g><g pointer-events="all" display="none" transform="translate(91, 52)"><circle cx="8" cy="8" r="4" stroke="none" fill="red" fill-opacity="0.3"/></g><g pointer-events="all" display="none" transform="translate(17, -7)"><circle cx="8" cy="8" r="4" stroke="none" fill="red" fill-opacity="0.3"/></g><g pointer-events="all" display="none" transform="translate(42, -7)"><circle cx="8" cy="8" r="4" stroke="none" fill="red" fill-opacity="0.3"/></g><g pointer-events="all" display="none" transform="translate(67, -7)"><circle cx="8" cy="8" r="4" stroke="none" fill="red" fill-opacity="0.3"/></g><g pointer-events="all" display="none" transform="translate(42, 32)"><circle cx="8" cy="8" r="4" stroke="none" fill="red" fill-opacity="0.3"/></g></g></g></g><g id="_4D714A80-425A-4138-B8EF-B4598D3F941F" bpmn2nodeid="_F9ED139A-B0F3-4D14-8E49-850CACDE37C9"><g class="stencils" transform="translate(340, 140)"><g class="me"><g pointer-events="fill" oryx:minimumSize="50 40" id="_4D714A80-425A-4138-B8EF-B4598D3F941F">   	<defs id="_4D714A80-425A-4138-B8EF-B4598D3F941F__4D714A80-425A-4138-B8EF-B4598D3F941F_17"> 		<radialGradient id="_4D714A80-425A-4138-B8EF-B4598D3F941Fbackground" cx="10%" cy="10%" r="100%" fx="10%" fy="10%"> 			<stop offset="0%" stop-color="#ffffff" stop-opacity="1" id="_4D714A80-425A-4138-B8EF-B4598D3F941F__4D714A80-425A-4138-B8EF-B4598D3F941F_18"/> 			<stop id="_4D714A80-425A-4138-B8EF-B4598D3F941Ffill_el" offset="100%" stop-color="#fafad2" stop-opacity="1"/> 		</radialGradient> 		<radialGradient id="_4D714A80-425A-4138-B8EF-B4598D3F941Fborderbackground" cx="10%" cy="10%" r="100%" fx="10%" fy="10%"> 			<stop offset="0%" stop-color="#ffffff" stop-opacity="1" id="_4D714A80-425A-4138-B8EF-B4598D3F941F__4D714A80-425A-4138-B8EF-B4598D3F941F_19"/> 			<stop id="_4D714A80-425A-4138-B8EF-B4598D3F941Ffill_border" offset="100%" stop-color="#000000" stop-opacity="1" stroke="#000000"/> 		</radialGradient> 	</defs> 	 	<rect id="_4D714A80-425A-4138-B8EF-B4598D3F941Ftext_frame" oryx:anchors="bottom top right left" x="1" y="1" width="94" height="79" rx="10" ry="10" stroke="none" stroke-width="0" fill="none"/> 	<rect id="_4D714A80-425A-4138-B8EF-B4598D3F941Fbg_frame" oryx:resize="vertical horizontal" x="0" y="0" width="100" height="80" rx="10" ry="10" stroke="#000000" stroke-width="1" fill="url(#_4D714A80-425A-4138-B8EF-B4598D3F941Fbackground) #ffffcc"/> 		<text font-size="12" id="_4D714A80-425A-4138-B8EF-B4598D3F941Ftext_name" x="50" y="40" oryx:align="middle center" oryx:fittoelem="text_frame" stroke="black" text-anchor="middle" stroke-width="0pt" letter-spacing="-0.01px" fill="#000000" transform="rotate(0 50 40)" visibility="inherit" oryx:fontSize="12"><tspan x="50" y="40" dy="5">Manager</tspan></text>     <g id="_4D714A80-425A-4138-B8EF-B4598D3F941FmanualTask" transform="scale(0.7,0.7) translate(8,8)" display="none">     	<path oryx:anchors="top left" id="_4D714A80-425A-4138-B8EF-B4598D3F941Fframe" style="opacity:1;fill:none;fill-opacity:1;stroke-width:1" d="M0.5,3.751l4.083-3.25c0,0,11.166,0.083,12.083,0.083s-2.417,2.917-1.5,2.917     s11.667,0,12.584,0c1.166,1.708-0.168,3.167-0.834,3.667s0.875,1.917-1,4.417c-0.75,0.25,0.75,1.875-1.333,3.333     c-1.167,0.583,0.583,1.542-1.25,2.833c-1.167,0-20.833,0.083-20.833,0.083l-2-1.333V3.751z" stroke="#000000"/> 		<path id="_4D714A80-425A-4138-B8EF-B4598D3F941Fframe2" oryx:anchors="top left" style="opacity:1;fill:none;stroke-width:2" d="M 13.5 7 L 27 7" stroke="#000000"/> 		<path id="_4D714A80-425A-4138-B8EF-B4598D3F941Fframe3" oryx:anchors="top left" style="opacity:1;fill:none;stroke-width:2" d="M 13.5 11 L 26 11" stroke="#000000"/> 		<path id="_4D714A80-425A-4138-B8EF-B4598D3F941Fframe4" oryx:anchors="top left" style="opacity:1;fill:none;stroke-width:1.5" d="M 14 14.5 L 25 14.5" stroke="#000000"/> 		<path id="_4D714A80-425A-4138-B8EF-B4598D3F941Fframe5" oryx:anchors="top left" style="opacity:1;fill:none;stroke-width:1.5" d="M 8.2 3.1 L 15 3.1" stroke="#000000"/> 	</g> 	 	<g id="_4D714A80-425A-4138-B8EF-B4598D3F941FbusinessRuleTask" transform="scale(0.7,0.7) translate(8,8)" display="none"> 		<rect id="_4D714A80-425A-4138-B8EF-B4598D3F941Fframe6" oryx:anchors="top left" x="0" y="0" width="22" height="4" style="opacity:1;fill:#B3B1B3;fill-opacity:1;" stroke="#000000"/> 		<rect id="_4D714A80-425A-4138-B8EF-B4598D3F941Fframe7" oryx:anchors="top left" x="0" y="4" style="opacity:1;fill:none;" width="22" height="12" stroke="#000000"/> 		<path id="_4D714A80-425A-4138-B8EF-B4598D3F941Fframe8" oryx:anchors="top left" style="opacity:1;fill:none;" d="M 0 10 L 22 10" stroke="#000000"/> 		<path id="_4D714A80-425A-4138-B8EF-B4598D3F941Fframe9" oryx:anchors="top left" style="opacity:1; fill:none;" d="M 7 4 L 7 16" stroke="#000000"/> 	</g> 	 	<g id="_4D714A80-425A-4138-B8EF-B4598D3F941FscriptTask" transform="scale(0.7,0.7) translate(8,8)" display="none"> 		<path oryx:anchors="top left" id="_4D714A80-425A-4138-B8EF-B4598D3F941Fframe10" style="opacity:1;fill:none;" stroke="#000000" d="M6.402,0.5h14.5c0,0-5.833,2.833-5.833,5.583s4.417,6,4.417,9.167    s-4.167,5.083-4.167,5.083H0.235c0,0,5-2.667,5-5s-4.583-6.75-4.583-9.25S6.402,0.5,6.402,0.5z"/> 		<path oryx:anchors="top left" id="_4D714A80-425A-4138-B8EF-B4598D3F941Fframe11" style="opacity:1;fill:none;stroke-width:1.5" d="M 3.5 4.5 L 13.5 4.5" stroke="#000000"/> 		<path oryx:anchors="top left" id="_4D714A80-425A-4138-B8EF-B4598D3F941Fframe12" style="opacity:1;fill:none;stroke-width:1.5" d="M 3.8 8.5 L 13.8 8.5" stroke="#000000"/> 		<path oryx:anchors="top left" id="_4D714A80-425A-4138-B8EF-B4598D3F941Fframe13" style="opacity:1;fill:none;stroke-width:1.5" d="M 6.3 12.5 L 16.3 12.5" stroke="#000000"/> 		<path oryx:anchors="top left" id="_4D714A80-425A-4138-B8EF-B4598D3F941Fframe14" style="opacity:1;fill:none;stroke-width:1.5" d="M 6.5 16.5 L 16.5 16.5" stroke="#000000"/> 	</g> 	 	<g id="_4D714A80-425A-4138-B8EF-B4598D3F941FuserTask" transform="scale(0.7,0.7) translate(8,8)" display="inherit"> 		<path id="_4D714A80-425A-4138-B8EF-B4598D3F941Fframe15" oryx:anchors="top left" style="opacity:1;fill:#F4F6F7" stroke="#000000" d="M0.585,24.167h24.083v-7.833c0,0-2.333-3.917-7.083-5.167h-9.25    c-4.417,1.333-7.833,5.75-7.833,5.75L0.585,24.167z"/> 		<path id="_4D714A80-425A-4138-B8EF-B4598D3F941Fframe16" oryx:anchors="top left" style="opacity:1;fill:none" d="M 6 20 L 6 24" stroke="#000000"/> 		<path id="_4D714A80-425A-4138-B8EF-B4598D3F941Fframe17" oryx:anchors="top left" style="opacity:1;fill:none" d="M 20 20 L 20 24" stroke="#000000"/> 		<circle id="_4D714A80-425A-4138-B8EF-B4598D3F941Fframe18" oryx:anchors="top left" fill="black" cx="13.002" cy="5.916" r="5.417" stroke="#000000"/> 		<path id="_4D714A80-425A-4138-B8EF-B4598D3F941Fframe19" oryx:anchors="top left" style="opacity:1;fill:#F0EFF0;" stroke="#000000" d="M8.043,7.083c0,0,2.814-2.426,5.376-1.807s4.624-0.693,4.624-0.693    c0.25,1.688,0.042,3.75-1.458,5.584c0,0,1.083,0.75,1.083,1.5s0.125,1.875-1,3s-5.5,1.25-6.75,0S8.668,12.834,8.668,12    s0.583-1.25,1.25-1.917C8.835,9.5,7.419,7.708,8.043,7.083z"/> 	</g> 	 	<g id="_4D714A80-425A-4138-B8EF-B4598D3F941FserviceTask" transform="scale(0.7,0.7) translate(8,8)" display="none"> 		<polygon oryx:anchors="top left" id="_4D714A80-425A-4138-B8EF-B4598D3F941Fframe20" style="opacity:1;fill:#ffffff" stroke="#000000" points="15.392,5.064 17.954,2.502 20.347,4.895 17.786,7.455     18.729,9.732 22.353,9.732 22.353,13.115 18.731,13.115 17.788,15.392 20.351,17.955 17.958,20.347 15.397,17.786 13.12,18.729     13.12,22.353 9.737,22.353 9.737,18.731 7.46,17.788 4.897,20.35 2.506,17.958 5.066,15.397 4.124,13.12 0.5,13.12 0.5,9.737     4.121,9.737 5.065,7.461 2.503,4.898 4.895,2.506 7.455,5.066 9.732,4.125 9.732,0.5 13.116,0.5 13.116,4.121 "/> 		<circle oryx:anchors="top left" id="_4D714A80-425A-4138-B8EF-B4598D3F941Fframe21" style="opacity:1;fill:none" stroke="#000000" cx="11.427" cy="11.426" r="3.714"/> 		<polygon oryx:anchors="top left" id="_4D714A80-425A-4138-B8EF-B4598D3F941Fframe22" style="opacity:1;fill:#ffffff" stroke="#000000" points="21.392,11.064 23.954,8.502 26.347,10.895 23.786,13.455     24.729,15.732 28.353,15.732 28.353,19.115 24.731,19.115 23.788,21.392 26.351,23.955 23.958,26.347 21.397,23.786 19.12,24.729     19.12,28.353 15.737,28.353 15.737,24.731 13.46,23.788 10.897,26.35 8.506,23.958 11.066,21.397 10.124,19.12 6.5,19.12     6.5,15.737 10.121,15.737 11.065,13.461 8.503,10.898 10.895,8.506 13.455,11.066 15.732,10.125 15.732,6.5 19.116,6.5     19.116,10.121 "/> 		<circle oryx:anchors="top left" id="_4D714A80-425A-4138-B8EF-B4598D3F941Fframe23" style="opacity:1;fill:none;" stroke="#000000" cx="17.427" cy="17.426" r="3.714"/> 	</g> 	 	<g id="_4D714A80-425A-4138-B8EF-B4598D3F941FsendTask" display="none"> 		<path id="_4D714A80-425A-4138-B8EF-B4598D3F941Fstframe24" oryx:anchors="left top" stroke="#FFFFFF" fill="black" stroke-width="1" d="M8,11 L8,21 L24,21 L24,11 L16,17z"/> 		<path id="_4D714A80-425A-4138-B8EF-B4598D3F941Fstframe25" oryx:anchors="left top" stroke="#FFFFFF" fill="black" stroke-width="1" d="M7,10 L16,17 L25 10z"/> 	</g> 	 	<g id="_4D714A80-425A-4138-B8EF-B4598D3F941FreceiveTask" display="none"> 		<path id="_4D714A80-425A-4138-B8EF-B4598D3F941Fframe26" oryx:anchors="left top" stroke="#000000" fill="none" stroke-width="1" d="M8,11 L8,21 L24,21 L24,11z M8,11 L16,17 L24,11"/> 	</g> 	 	<g id="_4D714A80-425A-4138-B8EF-B4598D3F941Fnone" display="inherit"/>  	<g id="_4D714A80-425A-4138-B8EF-B4598D3F941Fsequential" display="none">         <path oryx:anchors="bottom" fill="none" stroke="#000000" stroke-width="2" d="M46,76h10M46,72h10 M46,68h10" id="_4D714A80-425A-4138-B8EF-B4598D3F941F__4D714A80-425A-4138-B8EF-B4598D3F941F_20"/>     </g>   </g></g><g class="children" style="overflow:hidden"/><g class="edge"/></g><g class="controls"><g class="dockers"/><g class="magnets" transform="translate(340, 140)"><g pointer-events="all" display="none" transform="translate(-7, 12)"><circle cx="8" cy="8" r="4" stroke="none" fill="red" fill-opacity="0.3"/></g><g pointer-events="all" display="none" transform="translate(-7, 32)"><circle cx="8" cy="8" r="4" stroke="none" fill="red" fill-opacity="0.3"/></g><g pointer-events="all" display="none" transform="translate(-7, 52)"><circle cx="8" cy="8" r="4" stroke="none" fill="red" fill-opacity="0.3"/></g><g pointer-events="all" display="none" transform="translate(17, 71)"><circle cx="8" cy="8" r="4" stroke="none" fill="red" fill-opacity="0.3"/></g><g pointer-events="all" display="none" transform="translate(42, 71)"><circle cx="8" cy="8" r="4" stroke="none" fill="red" fill-opacity="0.3"/></g><g pointer-events="all" display="none" transform="translate(67, 71)"><circle cx="8" cy="8" r="4" stroke="none" fill="red" fill-opacity="0.3"/></g><g pointer-events="all" display="none" transform="translate(91, 12)"><circle cx="8" cy="8" r="4" stroke="none" fill="red" fill-opacity="0.3"/></g><g pointer-events="all" display="none" transform="translate(91, 32)"><circle cx="8" cy="8" r="4" stroke="none" fill="red" fill-opacity="0.3"/></g><g pointer-events="all" display="none" transform="translate(91, 52)"><circle cx="8" cy="8" r="4" stroke="none" fill="red" fill-opacity="0.3"/></g><g pointer-events="all" display="none" transform="translate(17, -7)"><circle cx="8" cy="8" r="4" stroke="none" fill="red" fill-opacity="0.3"/></g><g pointer-events="all" display="none" transform="translate(42, -7)"><circle cx="8" cy="8" r="4" stroke="none" fill="red" fill-opacity="0.3"/></g><g pointer-events="all" display="none" transform="translate(67, -7)"><circle cx="8" cy="8" r="4" stroke="none" fill="red" fill-opacity="0.3"/></g><g pointer-events="all" display="none" transform="translate(42, 32)"><circle cx="8" cy="8" r="4" stroke="none" fill="red" fill-opacity="0.3"/></g></g></g></g><g id="_410F18D0-A685-4065-9E00-576665BC2373" bpmn2nodeid="_18B84FAF-F807-4FE6-BB6F-F4F7C1ACA533"><g class="stencils" transform="translate(510, 166)"><g class="me"><g pointer-events="fill" id="_410F18D0-A685-4065-9E00-576665BC2373">      <defs id="_410F18D0-A685-4065-9E00-576665BC2373__410F18D0-A685-4065-9E00-576665BC2373_5"> 		<radialGradient id="_410F18D0-A685-4065-9E00-576665BC2373background" cx="10%" cy="10%" r="100%" fx="10%" fy="10%"> 			<stop offset="0%" stop-color="#ffffff" stop-opacity="1" id="_410F18D0-A685-4065-9E00-576665BC2373__410F18D0-A685-4065-9E00-576665BC2373_6"/> 			<stop id="_410F18D0-A685-4065-9E00-576665BC2373fill_el" offset="100%" stop-color="#ff6347" stop-opacity="1"/> 		</radialGradient> 	</defs> 	     <circle id="_410F18D0-A685-4065-9E00-576665BC2373bg_frame" cx="14" cy="14" r="14" stroke="#000000" fill="url(#_410F18D0-A685-4065-9E00-576665BC2373background) white" stroke-width="3"/> 	<text font-size="11" id="_410F18D0-A685-4065-9E00-576665BC2373text_name" x="14" y="30" oryx:align="top center" stroke="black" stroke-width="0pt" letter-spacing="-0.01px" fill="#000000" text-anchor="middle" transform="rotate(0 14 30)" visibility="inherit" oryx:fontSize="11"/>   </g></g><g class="children" style="overflow:hidden"/><g class="edge"/></g><g class="controls"><g class="dockers"/><g class="magnets" transform="translate(510, 166)"><g pointer-events="all" display="none" transform="translate(6, 6)"><circle cx="8" cy="8" r="4" stroke="none" fill="red" fill-opacity="0.3"/></g></g></g></g></g><g class="edge"><g id="_83657FBA-FEBF-43EF-B536-E0EEB00718AD" bpmn2nodeid="_536C6768-77C9-4AE9-9048-F4E952D201BD"><g class="stencils"><g class="me"><g pointer-events="painted" bpmn2nodeid="_BD0E45B4-6B06-4787-801F-9924B265D827"><path id="_83657FBA-FEBF-43EF-B536-E0EEB00718AD_1" d="M150.609375 180L194.15625 180 " stroke="#000000" fill="none" stroke-width="2" stroke-linecap="round" stroke-linejoin="round" marker-start="url(#_83657FBA-FEBF-43EF-B536-E0EEB00718ADstart)" marker-end="url(#_83657FBA-FEBF-43EF-B536-E0EEB00718ADend)"/></g><text id="_83657FBA-FEBF-43EF-B536-E0EEB00718ADtext_name" font-size="12" x="164.609375" y="166" oryx:edgePosition="startTop" stroke-width="0pt" letter-spacing="-0.01px" fill="#000000" text-anchor="start" transform="rotate(360 150.609375 180)" visibility="inherit" oryx:fontSize="12"/></g><g class="children" style="overflow:hidden"/><g class="edge"/></g><g class="controls"><g class="dockers"/><g class="magnets"/></g></g><g id="_55B4FA0F-A2E4-4F4D-A42B-FABE29006CCD" bpmn2nodeid="_0422E821-0EC1-40F7-B776-FEF854DB5929"><g class="stencils"><g class="me"><g pointer-events="painted" bpmn2nodeid="_25D9DC8A-CBD2-4A1C-A2A6-9A9390B224CA"><path id="_55B4FA0F-A2E4-4F4D-A42B-FABE29006CCD_1" d="M295.84375 180L339.15625 180 " stroke="#000000" fill="none" stroke-width="2" stroke-linecap="round" stroke-linejoin="round" marker-start="url(#_55B4FA0F-A2E4-4F4D-A42B-FABE29006CCDstart)" marker-end="url(#_55B4FA0F-A2E4-4F4D-A42B-FABE29006CCDend)"/></g><text id="_55B4FA0F-A2E4-4F4D-A42B-FABE29006CCDtext_name" font-size="12" x="309.84375" y="166" oryx:edgePosition="startTop" stroke-width="0pt" letter-spacing="-0.01px" fill="#000000" text-anchor="start" transform="rotate(360 295.84375 180)" visibility="inherit" oryx:fontSize="12"/></g><g class="children" style="overflow:hidden"/><g class="edge"/></g><g class="controls"><g class="dockers"/><g class="magnets"/></g></g><g id="_ACC12C3C-745F-4926-9ED6-1251106B792C" bpmn2nodeid="_BD51BD8F-B21F-450B-A4DD-057E3B23F05B"><g class="stencils"><g class="me"><g pointer-events="painted" bpmn2nodeid="_6DA8BC71-5A3B-425D-8CE6-90DE0DBC2AAE"><path id="_ACC12C3C-745F-4926-9ED6-1251106B792C_1" d="M440.203125 180L509.390625 180 " stroke="#000000" fill="none" stroke-width="2" stroke-linecap="round" stroke-linejoin="round" marker-start="url(#_ACC12C3C-745F-4926-9ED6-1251106B792Cstart)" marker-end="url(#_ACC12C3C-745F-4926-9ED6-1251106B792Cend)"/></g><text id="_ACC12C3C-745F-4926-9ED6-1251106B792Ctext_name" font-size="12" x="454.203125" y="166" oryx:edgePosition="startTop" stroke-width="0pt" letter-spacing="-0.01px" fill="#000000" text-anchor="start" transform="rotate(360 440.203125 180)" visibility="inherit" oryx:fontSize="12"/></g><g class="children" style="overflow:hidden"/><g class="edge"/></g><g class="controls"><g class="dockers"/><g class="magnets"/></g></g></g><text id="_50D37C8C-21BE-4C5A-9ED3-A7AC22CF1DBE" style="stroke-width:1;fill:rgb(177,194,214);font-family:arial;font-weight:bold" font-size="12" onclick="ORYX.Plugins.CanvasTitle.openTextualAnalysis()" onmouseover="ORYX.Plugins.CanvasTitle.addToolTip('_50D37C8C-21BE-4C5A-9ED3-A7AC22CF1DBE')" transform="translate(10, 20)">CC_BPD v.1.0 (src.CC_BPD)</text></g></g></svg>